<svg width="193" height="25" viewBox="0 0 193 25" fill="none" xmlns="http://www.w3.org/2000/svg">
<path d="M5.168 24V9.312H9.894V7.204H5.134V5.742C5.134 4.042 6.018 3.226 7.956 3.226H9.894V1.22H8.398C4.692 1.22 2.754 3.09 2.754 6.558V7.204H0.272V9.312H2.754V24H5.168ZM15.9237 24.34C19.1197 24.34 21.2617 22.81 22.2477 20.872L22.4177 20.906V24H24.6277V13.494C24.6277 9.754 22.5877 6.864 18.0997 6.864C13.7477 6.864 11.0617 9.652 11.0617 13.154V13.426H13.4077V12.916C13.4077 10.23 14.8357 9.04 17.8957 9.04C21.0577 9.04 22.3157 10.23 22.3157 13.188V14.412L16.3997 15.228C12.7277 15.738 10.5517 17.03 10.5517 19.954C10.5517 22.776 12.8637 24.34 15.9237 24.34ZM12.9317 19.784C12.9317 17.982 13.9177 17.438 16.6037 17.064L22.3157 16.248V16.826C22.3157 20.804 19.4937 22.3 16.6037 22.3C14.0197 22.3 12.9317 21.518 12.9317 19.784ZM35.0673 24.34C38.9433 24.34 41.3913 22.572 41.3913 19.58C41.3913 16.792 39.4533 15.5 36.5293 14.956L33.6733 14.412C31.1573 13.936 30.3073 13.358 30.3073 11.658C30.3073 9.958 31.2593 8.972 34.3193 8.972C37.9233 8.972 38.7053 10.502 38.7053 12.508V12.78H41.0513V12.61C41.0513 8.836 38.2293 6.864 34.3873 6.864C30.4093 6.864 27.9613 8.802 27.9613 11.692C27.9613 14.65 29.9333 15.908 32.6533 16.418L35.4413 16.894C37.9913 17.37 39.0453 17.982 39.0453 19.682C39.0453 21.382 38.2293 22.266 35.1013 22.266C31.2933 22.266 30.3413 21.144 30.3413 18.832V18.424H27.9613V18.492C27.9613 22.402 30.4773 24.34 35.0673 24.34ZM47.018 24V14.344C47.018 10.57 48.786 9.006 52.152 9.006C55.552 9.006 56.776 10.604 56.776 14.242V24H59.19V13.63C59.19 9.788 57.32 6.864 52.934 6.864C49.534 6.864 47.8 8.734 47.154 10.332H47.018V1.22H44.57V24H47.018ZM65.4426 4.96V1.22H63.0286V4.96H65.4426ZM65.4426 24V7H63.0286V24H65.4426ZM76.4543 24.34C81.3503 24.34 84.4783 20.702 84.4783 15.602C84.4783 10.502 81.3503 6.864 76.4543 6.864C71.5243 6.864 68.2943 10.502 68.2943 15.602C68.2943 20.702 71.5243 24.34 76.4543 24.34ZM76.4543 22.164C72.3403 22.164 70.7083 19.784 70.7083 15.602C70.7083 11.42 72.3403 9.074 76.4543 9.074C80.5003 9.074 82.0983 11.42 82.0983 15.602C82.0983 19.784 80.5003 22.164 76.4543 22.164ZM89.8833 24V14.31C89.8833 10.57 91.6853 9.006 95.0173 9.006C98.4513 9.006 99.6413 10.604 99.6413 14.242V24H102.055V13.698C102.055 9.652 100.083 6.864 95.7653 6.864C92.2973 6.864 90.3933 8.904 89.7473 10.672H89.6453V7.204H87.4353V24H89.8833ZM114.773 24.34C121.607 24.34 124.327 20.906 124.327 16.928C124.327 13.392 122.457 10.876 117.629 10.026L112.665 9.142C111.339 8.904 110.897 8.598 110.897 7.884C110.897 7.034 111.509 6.626 113.923 6.626C116.779 6.626 117.425 7.17 117.425 8.496V8.904H123.715V8.326C123.715 4.076 120.689 0.88 114.331 0.88C107.633 0.88 104.539 4.076 104.539 8.122C104.539 11.658 106.443 14.106 111.067 14.82L116.031 15.602C117.595 15.84 117.935 16.18 117.935 17.234C117.935 18.22 117.425 18.594 115.011 18.594C111.951 18.594 111.271 18.22 111.271 16.35V16.078H104.981V16.52C104.981 21.28 108.245 24.34 114.773 24.34ZM133.859 24.34C135.457 24.34 137.055 24.136 137.939 23.932V18.594H135.151C133.689 18.594 133.315 18.322 133.315 17.268V11.76H137.939V6.524H133.315V2.92H128.249L127.127 6.524H124.611V11.76H126.923V18.22C126.923 22.436 129.133 24.34 133.859 24.34ZM148.017 24.34C153.797 24.34 157.129 20.906 157.129 15.262C157.129 9.584 153.797 6.184 148.017 6.184C142.237 6.184 138.905 9.584 138.905 15.262C138.905 20.906 142.237 24.34 148.017 24.34ZM148.017 18.798C145.875 18.798 145.263 18.05 145.263 15.262C145.263 12.474 145.875 11.726 148.017 11.726C150.159 11.726 150.771 12.474 150.771 15.262C150.771 18.05 150.159 18.798 148.017 18.798ZM164.927 24V12.95C164.927 11.692 165.471 11.556 166.525 11.556C167.715 11.556 167.953 11.93 167.953 13.222V14.956H174.345V11.794C174.345 8.36 173.155 6.184 169.789 6.184C167.477 6.184 165.811 7.476 164.825 9.176H164.519V6.524H158.569V24H164.927ZM184.003 24.34C189.205 24.34 192.469 21.824 192.469 18.288V17.88H186.145V17.948C186.145 18.73 185.635 19.036 184.105 19.036C181.759 19.036 181.181 18.594 181.079 16.724H192.401C192.503 16.146 192.673 15.092 192.673 14.14C192.673 9.482 189.851 6.184 184.207 6.184C178.393 6.184 175.129 9.652 175.129 15.432C175.129 21.008 178.325 24.34 184.003 24.34ZM183.867 11.216C185.975 11.216 186.553 12.134 186.587 13.256H181.079C181.181 11.828 181.895 11.216 183.867 11.216Z" fill="#41436A"/>
</svg>
